<svg width="108" height="108" viewBox="0 0 108 108" fill="none" xmlns="http://www.w3.org/2000/svg">
<path d="M42.12 3.66187C37.8 3.66187 33.8344 6.21 31.9781 10.0237C36.7706 11.8969 39.3019 16.8244 38.1881 22.7137C38.0362 23.5237 37.3275 24.0806 36.5344 24.0806C36.4331 24.0806 36.3319 24.0806 36.2306 24.0469C36.0121 24.0098 35.8032 23.9293 35.6162 23.8102C35.4293 23.691 35.2682 23.5356 35.1423 23.3532C35.0165 23.1707 34.9285 22.9648 34.8835 22.7478C34.8386 22.5307 34.8376 22.3068 34.8806 22.0894C35.6231 18.1237 34.2056 13.7363 29.3963 12.7744H29.3794C29.2811 12.7564 29.1849 12.7281 29.0925 12.69C29.0756 12.69 29.0419 12.69 29.025 12.6731C27.54 11.9981 25.9875 11.6606 24.3844 11.6606C18.1575 11.6606 13.0781 16.74 13.0781 22.9669C13.0781 24.5025 13.3988 26.0044 14.0063 27.4387L14.0569 27.5906C14.9344 29.8181 17.1956 30.8981 19.3556 30.105C20.2163 29.7844 21.195 30.24 21.5156 31.1006C21.8362 31.9781 21.3806 32.9569 20.5031 33.2775C19.6594 33.5812 18.7988 33.7331 17.9381 33.7331C15.3731 33.7331 12.96 32.3831 11.5594 30.105C6.71625 31.455 3.34125 35.8594 3.34125 40.9894C3.34125 42.8625 3.79688 44.685 4.67437 46.305C8.80875 44.4825 13.7025 45.8663 16.4362 49.8319C16.6089 50.0868 16.7089 50.3839 16.7256 50.6913C16.7424 50.9987 16.6752 51.3049 16.5313 51.5771C16.3874 51.8492 16.1722 52.0771 15.9088 52.2364C15.6453 52.3957 15.3435 52.4803 15.0356 52.4813C14.4956 52.4813 13.9725 52.2281 13.6519 51.7556C11.6438 48.8194 7.88062 48.0263 5.04563 49.9331H5.02875C4.995 49.9669 4.97813 49.9837 4.94438 50.0006C3.44539 50.884 2.20159 52.1417 1.33484 53.6503C0.468091 55.159 0.00812324 56.867 0 58.6069C0 63.4162 3.42562 67.5675 8.15062 68.4619C8.44378 68.5175 8.71693 68.65 8.94222 68.8456C9.16752 69.0413 9.33691 69.2932 9.43313 69.5756C9.61875 70.1662 9.48375 70.8075 9.06187 71.2631C7.14036 73.3505 6.07938 76.0873 6.09187 78.9244C6.09187 85.1344 11.1206 90.1969 17.3138 90.2306C19.3894 89.7581 24.6712 87.9019 25.1606 85.3875C25.3294 84.4762 26.2069 83.8856 27.135 84.0544C28.0462 84.24 28.6538 85.1344 28.4681 86.0456C27.6581 90.2475 22.0725 92.3737 19.1194 93.2344C19.161 94.9445 19.6407 96.6153 20.5125 98.0872C21.3842 99.559 22.619 100.783 24.0987 101.641C25.5784 102.499 27.2535 102.964 28.964 102.99C30.6744 103.016 32.3629 102.603 33.8681 101.79H33.885C34.0031 101.621 34.1719 101.503 34.3744 101.402C37.53 99.7987 38.8125 96.1537 37.3106 93.0994C36.8888 92.2556 37.2262 91.2431 38.07 90.8381C38.2681 90.738 38.484 90.6782 38.7054 90.6623C38.9267 90.6463 39.149 90.6745 39.3594 90.7451C39.5697 90.8158 39.764 90.9275 39.9308 91.0738C40.0977 91.2201 40.2338 91.3981 40.3312 91.5975C42.2719 95.5125 41.2763 100.018 38.1544 102.853C39.7238 103.815 41.5294 104.338 43.4194 104.338C47.4525 104.338 51.1481 101.858 52.6837 98.1281V57.3581C50.5406 55.4006 47.52 55.1306 45.1237 56.7506C44.9409 56.8747 44.7354 56.9616 44.519 57.0063C44.3027 57.051 44.0796 57.0526 43.8625 57.0111C43.6455 56.9696 43.4388 56.8857 43.2542 56.7643C43.0696 56.6429 42.9107 56.4863 42.7866 56.3034C42.6625 56.1206 42.5756 55.9151 42.5309 55.6987C42.4862 55.4823 42.4846 55.2593 42.5261 55.0422C42.61 54.6039 42.8645 54.2169 43.2338 53.9662C44.6084 53.0259 46.2097 52.4706 47.8714 52.3578C49.5331 52.2451 51.1946 52.579 52.6837 53.325V37.1925C50.5406 35.235 47.52 34.965 45.1069 36.5681C44.7354 36.7993 44.2886 36.8769 43.8609 36.7847C43.4332 36.6924 43.0581 36.4375 42.8149 36.0738C42.5717 35.7101 42.4795 35.2661 42.5576 34.8356C42.6358 34.4051 42.8782 34.0219 43.2338 33.7669C44.6132 32.8368 46.2145 32.2891 47.8745 32.1794C49.5345 32.0697 51.194 32.402 52.6837 33.1425V10.9687C51.8783 8.8188 50.4347 6.96657 48.5465 5.66053C46.6583 4.35448 44.4159 3.65708 42.12 3.66187ZM25.2956 73.9631C25.1944 73.9631 25.0763 73.9462 24.975 73.9294C19.7775 72.9169 16.4869 67.9556 17.4825 62.6231C17.6512 61.7119 18.5287 61.1044 19.4569 61.2731C20.3681 61.4419 20.9756 62.3194 20.79 63.2475C20.1487 66.7237 22.2581 69.9637 25.6163 70.6219C26.5275 70.7906 27.135 71.685 26.9494 72.5962C26.7975 73.4062 26.0887 73.9631 25.2956 73.9631ZM24.2831 44.145C23.5069 44.6681 22.4606 44.4656 21.9375 43.6894C21.4144 42.9131 21.6169 41.8669 22.3931 41.3438C26.7806 38.3906 32.6194 39.5719 35.6906 44.0438C35.8632 44.2987 35.9633 44.5958 35.98 44.9032C35.9968 45.2106 35.9296 45.5168 35.7857 45.7889C35.6418 46.0611 35.4266 46.289 35.1631 46.4483C34.8997 46.6076 34.5979 46.6922 34.29 46.6931C33.75 46.6931 33.2269 46.4231 32.9062 45.9506C30.8981 43.0312 27.1181 42.2381 24.2831 44.145ZM43.74 70.2C43.8026 70.6431 43.6866 71.0928 43.4177 71.4504C43.1487 71.808 42.7487 72.0442 42.3056 72.1069C41.8331 72.1744 41.3775 72.2081 40.9219 72.2081C36.2475 72.2081 32.2481 68.7825 31.5056 63.9056C31.4716 63.6861 31.4814 63.4621 31.5343 63.2464C31.5873 63.0307 31.6823 62.8276 31.8141 62.6488C31.9458 62.47 32.1117 62.319 32.302 62.2046C32.4923 62.0901 32.7034 62.0144 32.9231 61.9819C33.1427 61.9474 33.3669 61.9568 33.5827 62.0096C33.7986 62.0623 34.0019 62.1574 34.1808 62.2892C34.3597 62.421 34.5107 62.587 34.625 62.7776C34.7393 62.9681 34.8148 63.1795 34.8469 63.3994C35.37 66.8925 38.4581 69.2381 41.8331 68.7656C42.7444 68.6137 43.605 69.2719 43.74 70.2ZM65.61 26.3587L67.8375 22.7306C68.2425 22.815 68.6644 22.8825 69.1031 22.8825C72.6131 22.8825 75.465 20.0306 75.465 16.5206C75.465 14.8334 74.7947 13.2152 73.6016 12.0221C72.4086 10.829 70.7904 10.1587 69.1031 10.1587C67.4159 10.1587 65.7977 10.829 64.6046 12.0221C63.4115 13.2152 62.7413 14.8334 62.7413 16.5206C62.7413 18.0056 63.2644 19.3219 64.1081 20.4187L62.505 23.0006H55.5356V27.3881H63.7369C64.5131 27.3881 65.2219 27 65.61 26.3587Z" fill="#FFD266"/>
<path d="M79.785 38.0363L85.9444 30.8306C86.2819 30.4256 86.4675 29.9194 86.4675 29.4131V22.4606C88.8806 21.5663 90.6356 19.2544 90.6356 16.5206C90.6356 13.0275 87.7669 10.1756 84.2737 10.1756C82.5894 10.1756 80.9738 10.8436 79.7812 12.033C78.5886 13.2224 77.9163 14.8363 77.9119 16.5206C77.9119 19.2544 79.65 21.5831 82.08 22.4606V28.6031L77.1019 34.425H55.5525V38.8125H78.1144C78.7556 38.8125 79.3631 38.5256 79.785 38.0363Z" fill="#FFD266"/>
<path d="M81.2531 47.7562L89.9437 37.7831H95.6981C96.5925 40.1962 98.9044 41.9344 101.638 41.9344C105.148 41.9344 108 39.0825 108 35.5725C107.996 33.8882 107.323 32.2743 106.131 31.0849C104.938 29.8954 103.322 29.2275 101.638 29.2275C98.8875 29.2275 96.5756 30.9825 95.6981 33.3956H88.9481C88.3069 33.3956 87.6994 33.6656 87.2775 34.1381L78.5869 44.1112H55.5525V48.4987H79.5994C80.2406 48.4987 80.8481 48.2287 81.2531 47.7562ZM69.12 85.1175C68.6812 85.1175 68.2594 85.185 67.8544 85.2694L65.6269 81.6412C65.2219 81 64.53 80.6119 63.7706 80.6119H55.5694V84.9994H62.5388L64.125 87.5812C63.2813 88.6612 62.7581 89.9944 62.7581 91.4794C62.7581 93.1666 63.4284 94.7848 64.6215 95.9779C65.8146 97.171 67.4327 97.8412 69.12 97.8412C70.8073 97.8412 72.4254 97.171 73.6185 95.9779C74.8116 94.7848 75.4819 93.1666 75.4819 91.4794C75.4819 87.9694 72.63 85.1175 69.12 85.1175Z" fill="#FFD266"/>
<path d="M86.4675 85.5394V78.5869C86.4675 78.0806 86.2819 77.5744 85.9444 77.1525L79.785 69.9469C79.3631 69.4744 78.7556 69.1875 78.1144 69.1875H55.5525V73.575H77.1019L82.08 79.3969V85.5394C79.65 86.4337 77.9119 88.7456 77.9119 91.4794C77.9163 93.1637 78.5886 94.7776 79.7812 95.967C80.9738 97.1564 82.5894 97.8244 84.2737 97.8244C87.7669 97.8244 90.6356 94.9725 90.6356 91.4794C90.6356 88.7456 88.8806 86.4169 86.4675 85.5394Z" fill="#FFD266"/>
<path d="M101.638 66.0656C98.9044 66.0656 96.5925 67.8037 95.6981 70.2169H89.9437L81.2531 60.2437C80.8481 59.7712 80.2406 59.5012 79.5994 59.5012H55.5525V63.8887H78.5869L87.2775 73.8619C87.6825 74.3344 88.29 74.6044 88.9481 74.6044H95.6981C96.1406 75.8249 96.948 76.8796 98.0107 77.6253C99.0734 78.3711 100.34 78.7716 101.638 78.7725C103.322 78.7725 104.938 78.1046 106.131 76.9151C107.323 75.7257 107.996 74.1118 108 72.4275C108 68.9175 105.148 66.0656 101.638 66.0656Z" fill="#FFD266"/>
</svg>
