<svg width="124" height="124" viewBox="0 0 124 124" fill="none" xmlns="http://www.w3.org/2000/svg">
<g clip-path="url(#clip0_11_14)">
<path d="M62 0C55.1516 0 49.6 5.55158 49.6 12.4C49.6 19.2484 55.1516 24.8 62 24.8C68.8456 24.7933 74.3933 19.2456 74.4 12.4C74.4 5.55158 68.8484 0 62 0ZM62 20.6667C57.4345 20.6667 53.7333 16.9655 53.7333 12.4C53.7333 7.83447 57.4345 4.13333 62 4.13333C66.5655 4.13333 70.2667 7.83447 70.2667 12.4C70.2667 16.9655 66.5655 20.6667 62 20.6667ZM70.2667 26.8667H69.7789L69.3429 27.0837C67.0617 28.2194 64.5482 28.8106 62 28.8106C59.4518 28.8106 56.9383 28.2194 54.6571 27.0837L54.2211 26.8667H53.7333C48.0293 26.8734 43.4067 31.496 43.4 37.2V49.6C43.4 53.0242 46.1758 55.8 49.6 55.8H74.4C77.8242 55.8 80.6 53.0242 80.6 49.6V37.2C80.5933 31.496 75.9707 26.8734 70.2667 26.8667ZM76.4667 49.6C76.4667 50.1481 76.2489 50.6738 75.8614 51.0614C75.4738 51.4489 74.9481 51.6667 74.4 51.6667H49.6C49.0519 51.6667 48.5262 51.4489 48.1386 51.0614C47.7511 50.6738 47.5333 50.1481 47.5333 49.6V37.2C47.5338 33.9471 50.0482 31.2475 53.2931 31.0165C56.0212 32.2826 58.9925 32.9385 62 32.9385C65.0075 32.9385 67.9788 32.2826 70.7069 31.0165C73.9515 31.2475 76.4661 33.9471 76.4667 37.2V49.6ZM105.4 68.2C98.5516 68.2 93 73.7516 93 80.6C93 87.4484 98.5516 93 105.4 93C112.248 93 117.8 87.4484 117.8 80.6C117.793 73.7544 112.246 68.2067 105.4 68.2ZM105.4 88.8667C100.834 88.8667 97.1333 85.1655 97.1333 80.6C97.1333 76.0345 100.834 72.3333 105.4 72.3333C109.966 72.3333 113.667 76.0345 113.667 80.6C113.667 85.1655 109.966 88.8667 105.4 88.8667ZM113.667 95.0667H113.179L112.743 95.2733C110.462 96.409 107.948 97 105.4 97C102.852 97 100.338 96.409 98.0571 95.2733L97.6211 95.0667H97.1333C91.4293 95.0734 86.8067 99.696 86.8 105.4V117.8C86.8 121.224 89.5758 124 93 124H117.8C121.224 124 124 121.224 124 117.8V105.4C123.993 99.696 119.371 95.0734 113.667 95.0667ZM119.867 117.8C119.867 118.348 119.649 118.874 119.261 119.261C118.874 119.649 118.348 119.867 117.8 119.867H93C92.4519 119.867 91.9262 119.649 91.5386 119.261C91.1511 118.874 90.9333 118.348 90.9333 117.8V105.4C90.9338 102.147 93.4482 99.4475 96.6931 99.2165C99.4212 100.483 102.392 101.139 105.4 101.139C108.408 101.139 111.379 100.483 114.107 99.2165C117.352 99.4475 119.866 102.147 119.867 105.4V117.8ZM18.6 68.2C11.7516 68.2 6.2 73.7516 6.2 80.6C6.2 87.4484 11.7516 93 18.6 93C25.4484 93 31 87.4484 31 80.6C30.9933 73.7544 25.4456 68.2067 18.6 68.2ZM18.6 88.8667C14.0345 88.8667 10.3333 85.1655 10.3333 80.6C10.3333 76.0345 14.0345 72.3333 18.6 72.3333C23.1655 72.3333 26.8667 76.0345 26.8667 80.6C26.8667 85.1655 23.1655 88.8667 18.6 88.8667ZM26.8667 95.0667H26.3789L25.9429 95.2733C23.6617 96.409 21.1482 97 18.6 97C16.0518 97 13.5383 96.409 11.2571 95.2733L10.8211 95.0667H10.3333C4.62933 95.0734 0.00671667 99.696 0 105.4V117.8C0 121.224 2.77579 124 6.2 124H31C34.4242 124 37.2 121.224 37.2 117.8V105.4C37.1933 99.696 32.5707 95.0734 26.8667 95.0667ZM33.0667 117.8C33.0667 118.348 32.8489 118.874 32.4614 119.261C32.0738 119.649 31.5481 119.867 31 119.867H6.2C5.65189 119.867 5.12622 119.649 4.73865 119.261C4.35107 118.874 4.13333 118.348 4.13333 117.8V105.4C4.13385 102.147 6.64821 99.4475 9.89313 99.2165C12.6212 100.483 15.5925 101.139 18.6 101.139C21.6075 101.139 24.5788 100.483 27.3069 99.2165C30.5518 99.4475 33.0661 102.147 33.0667 105.4V117.8ZM82.5044 104.955L82.5013 104.947C82.2865 104.443 81.8801 104.045 81.3717 103.84C80.8633 103.636 80.2944 103.641 79.7901 103.856C70.4578 107.767 60.0936 108.481 50.3133 105.886L52.2477 105.317C53.3435 104.996 53.9718 103.848 53.6509 102.753C53.3301 101.657 52.182 101.028 51.0862 101.349L42.8195 103.774C42.7885 103.774 42.7658 103.809 42.7369 103.819C42.5454 103.89 42.3657 103.99 42.2037 104.115C42.1318 104.153 42.0629 104.197 41.997 104.245C41.779 104.439 41.6061 104.679 41.4907 104.947C41.3786 105.218 41.325 105.509 41.3336 105.801C41.384 106.081 41.4529 106.357 41.5403 106.628C41.5527 106.657 41.5403 106.69 41.563 106.719L45.6963 114.628C45.822 114.868 45.9938 115.082 46.202 115.256C46.4103 115.431 46.6508 115.562 46.9098 115.644C47.1689 115.725 47.4415 115.755 47.712 115.731C47.9825 115.707 48.2456 115.63 48.4863 115.504C48.7271 115.378 48.9407 115.206 49.115 114.998C49.2893 114.79 49.4209 114.549 49.5023 114.29C49.5837 114.031 49.6132 113.759 49.5892 113.488C49.5653 113.218 49.4882 112.955 49.3626 112.714L47.6803 109.498C58.7923 112.838 70.7223 112.189 81.4063 107.663C81.911 107.449 82.3103 107.044 82.5162 106.536C82.7222 106.028 82.7179 105.459 82.5044 104.955ZM117.194 54.3389C116.807 53.9514 116.281 53.7338 115.733 53.7338C115.185 53.7338 114.66 53.9514 114.272 54.3389L111.348 57.2632C109.637 39.1618 98.1442 23.4536 81.4101 16.3432C80.9059 16.1283 80.3369 16.1226 79.8284 16.3272C79.3199 16.5319 78.9135 16.9301 78.6987 17.4344C78.4838 17.9387 78.4781 18.5076 78.6827 19.0161C78.8873 19.5246 79.2856 19.931 79.7899 20.1459C94.8016 26.5259 105.237 40.4687 107.126 56.6701L104.794 54.3389C104.405 53.9624 103.883 53.7541 103.341 53.7588C102.799 53.7635 102.281 53.9809 101.897 54.364C101.514 54.7472 101.297 55.2656 101.292 55.8074C101.287 56.3493 101.496 56.8714 101.872 57.2611L108.072 63.4611C108.264 63.6533 108.492 63.8058 108.742 63.91C108.993 64.0142 109.261 64.068 109.533 64.0683C109.804 64.0686 110.073 64.0155 110.324 63.9119C110.575 63.8084 110.803 63.6564 110.995 63.4647L110.999 63.4611L117.199 57.2611C117.585 56.873 117.802 56.3471 117.802 55.7991C117.801 55.2511 117.582 54.7259 117.194 54.3389ZM45.4067 17.8953C45.4001 17.7747 45.3821 17.655 45.353 17.5377C45.353 17.5191 45.3303 17.5067 45.322 17.4861C45.3137 17.4654 45.322 17.4509 45.322 17.4344C45.2657 17.3339 45.2007 17.2384 45.1277 17.1492C45.0607 17.028 44.9818 16.9138 44.8921 16.8082C44.7699 16.7 44.6345 16.6076 44.4891 16.5333C44.4165 16.4715 44.3391 16.4156 44.2577 16.3659L35.991 12.5901C35.4968 12.3872 34.9431 12.3835 34.4463 12.58C33.9494 12.7764 33.5479 13.1576 33.326 13.6436C33.1041 14.1296 33.0791 14.6827 33.2561 15.1868C33.4332 15.6909 33.7986 16.1068 34.2757 16.3473L38.5557 18.3045C22.4427 26.9279 12.3884 43.7245 12.4 62C12.4 62.5481 12.6177 63.0738 13.0053 63.4614C13.3929 63.8489 13.9186 64.0667 14.4667 64.0667C15.0148 64.0667 15.5404 63.8489 15.928 63.4614C16.3156 63.0738 16.5333 62.5481 16.5333 62C16.523 45.9076 25.0328 31.0124 38.9009 22.8491L37.4067 25.9718C37.17 26.4652 37.1388 27.0323 37.3197 27.5488C37.5006 28.0652 37.879 28.4888 38.3718 28.7267C38.6504 28.8629 38.9565 28.9335 39.2667 28.9333C39.6555 28.9328 40.0364 28.8225 40.3654 28.6153C40.6944 28.408 40.9583 28.1121 41.1267 27.7615L45.26 19.1373C45.26 19.1167 45.26 19.0939 45.2765 19.0733C45.3303 18.9319 45.3677 18.7849 45.3881 18.6351C45.4235 18.5238 45.4499 18.4099 45.4667 18.2941C45.4598 18.1595 45.4397 18.0259 45.4067 17.8953Z" fill="#FFD266"/>
</g>
<defs>
<clipPath id="clip0_11_14">
<rect width="124" height="124" fill="white"/>
</clipPath>
</defs>
</svg>
