<svg width="72" height="71" viewBox="0 0 72 71" fill="none" xmlns="http://www.w3.org/2000/svg">
<path d="M65.6719 10.5391H6.32812C2.83177 10.5391 0 13.3488 0 16.7793V54.2207C0 57.6716 2.85258 60.4609 6.32812 60.4609H65.6719C69.139 60.4609 72 57.6833 72 54.2207V16.7793C72 13.3549 69.1795 10.5391 65.6719 10.5391ZM64.7857 14.6992L40.4747 38.5462C39.2794 39.7249 37.6903 40.3739 36 40.3739C34.3097 40.3739 32.7206 39.7248 31.5214 38.5423L7.21434 14.6992H64.7857ZM4.21875 53.374V17.6287L22.4491 35.5111L4.21875 53.374ZM7.21702 56.3008L25.4402 38.445L28.5422 41.4879C30.5343 43.4523 33.1829 44.5341 36 44.5341C38.8171 44.5341 41.4657 43.4523 43.4538 41.4917L46.5598 38.445L64.783 56.3008H7.21702ZM67.7812 53.374L49.5509 35.5111L67.7812 17.6287V53.374Z" fill="#EB0701"/>
</svg>
