<svg width="99" height="99" viewBox="0 0 99 99" fill="none" xmlns="http://www.w3.org/2000/svg">
<path d="M49.5 18.8506C53.081 18.8506 55.9969 15.9367 55.9969 12.3537C55.9969 8.77078 53.081 5.85879 49.5 5.85879C45.919 5.85879 43.0051 8.77271 43.0051 12.3537C43.0051 15.9347 45.919 18.8506 49.5 18.8506ZM49.5 8.1791C51.8029 8.1791 53.6766 10.0528 53.6766 12.3537C53.6766 14.6566 51.8029 16.5303 49.5 16.5303C47.1971 16.5303 45.3254 14.6566 45.3254 12.3537C45.3254 10.0528 47.1971 8.1791 49.5 8.1791ZM66.8269 21.8303C69.8221 21.8303 72.2584 19.3939 72.2584 16.3988C72.2584 13.4037 69.8221 10.9673 66.8269 10.9673C63.8318 10.9673 61.3955 13.4037 61.3955 16.3988C61.3955 19.3939 63.8318 21.8303 66.8269 21.8303ZM66.8269 13.2877C68.542 13.2877 69.9381 14.6837 69.9381 16.3988C69.9381 18.1139 68.542 19.51 66.8269 19.51C65.1118 19.51 63.7158 18.1139 63.7158 16.3988C63.7158 14.6837 65.1118 13.2877 66.8269 13.2877ZM32.1731 21.8303C35.1682 21.8303 37.6045 19.3939 37.6045 16.3988C37.6045 13.4037 35.1682 10.9673 32.1731 10.9673C29.1779 10.9673 26.7416 13.4037 26.7416 16.3988C26.7416 19.3939 29.1779 21.8303 32.1731 21.8303ZM32.1731 13.2877C33.8882 13.2877 35.2842 14.6837 35.2842 16.3988C35.2842 18.1139 33.8882 19.51 32.1731 19.51C30.458 19.51 29.0619 18.1139 29.0619 16.3988C29.0619 14.6837 30.458 13.2877 32.1731 13.2877ZM22.4355 34.5843H76.5606C76.87 34.5843 77.1659 34.4605 77.3844 34.242C77.6028 34.0235 77.7227 33.7257 77.7208 33.4164C77.6821 27.4454 72.794 22.5882 66.8231 22.5882C64.2727 22.5882 61.7996 23.5048 59.8467 25.1348C57.3987 22.1145 53.663 20.177 49.4961 20.177C45.3292 20.177 41.5935 22.1145 39.1456 25.1348C37.1946 23.5048 34.7196 22.5882 32.1692 22.5882C26.1983 22.5882 21.3101 27.4454 21.2715 33.4164C21.2695 33.7257 21.3913 34.0216 21.6079 34.242C21.8278 34.4608 22.1253 34.5838 22.4355 34.5843ZM66.8269 24.9105C71.1292 24.9105 74.7199 28.1164 75.3173 32.2639H62.7645C62.5904 30.3942 62.0297 28.6346 61.1596 27.0664C62.7219 25.6878 64.7425 24.9105 66.8269 24.9105ZM49.5 22.4974C55.1345 22.4974 59.8157 26.7822 60.4345 32.2639H38.5655C39.1843 26.7822 43.8655 22.4974 49.5 22.4974ZM32.1731 24.9105C34.2575 24.9105 36.28 25.6878 37.8424 27.0684C36.9722 28.6365 36.4115 30.3961 36.2375 32.2659H23.6846C24.2801 28.1164 27.8689 24.9105 32.1731 24.9105ZM95.9933 63.273L84.6315 38.6371C84.5025 38.3578 84.268 38.1411 83.9794 38.0346C83.6909 37.928 83.3719 37.9402 83.0923 38.0686L72.5542 42.9277C72.2747 43.0564 72.0577 43.2908 71.951 43.5793C71.9316 43.6335 71.9161 43.6895 71.9045 43.7476L70.7367 44.2368C69.8665 44.6003 69.0564 44.7472 68.1147 44.7163C65.8253 44.637 64.0174 44.0801 62.1032 43.4904C60.0613 42.86 57.9498 42.2104 55.293 42.2104H55.2505C53.837 42.2626 51.3911 42.5661 48.7478 43.2816C47.0037 42.8929 45.2384 42.6493 43.7514 42.5932H43.7089C41.0521 42.5932 38.9406 43.2448 36.8988 43.8732C34.9845 44.463 33.1747 45.0199 30.8872 45.0991C29.9417 45.1301 29.1354 44.9831 28.2653 44.6196L27.0974 44.1304C27.0858 44.0743 27.0703 44.0183 27.051 43.9622C26.9984 43.8191 26.918 43.6879 26.8145 43.5761C26.7109 43.4642 26.5863 43.374 26.4477 43.3106L15.9096 38.4514C15.3276 38.1827 14.6392 38.4379 14.3705 39.0199L3.00674 63.6558C2.87719 63.9362 2.86558 64.2553 2.97193 64.5434C3.07828 64.8315 3.29484 65.0674 3.57521 65.195L14.1133 70.0541C14.2699 70.1276 14.4362 70.1605 14.5986 70.1605C15.0376 70.1605 15.4571 69.911 15.6524 69.4856L16.0411 68.6426L22.0894 71.9935C21.8999 72.533 21.8013 73.1072 21.8013 73.697C21.8013 75.064 22.3311 76.3441 23.2921 77.3051C24.2859 78.3009 25.593 78.7978 26.9002 78.7978C27.0684 78.7978 27.2347 78.7901 27.4029 78.7727C27.3874 78.937 27.3797 79.1053 27.3797 79.2735C27.3797 80.6405 27.9095 81.9206 28.8705 82.8816C29.8644 83.8774 31.1715 84.3743 32.4786 84.3743C33.0625 84.3743 33.6465 84.2738 34.2014 84.0765C34.3039 85.2289 34.7931 86.3524 35.6729 87.2322C36.6687 88.226 37.9738 88.7249 39.281 88.7249C39.9712 88.7249 40.6596 88.5857 41.3035 88.3072C41.435 89.4016 41.9184 90.4612 42.7576 91.3004C43.7186 92.2614 45.0005 92.7912 46.3656 92.7912C47.7308 92.7912 49.0127 92.2614 49.9737 91.3004L50.1555 91.1187L51.3833 92.0719C52.2766 92.7685 53.3772 93.1462 54.5099 93.1451C56.0317 93.1451 57.5399 92.4683 58.5434 91.1767C59.197 90.3356 59.5624 89.332 59.6069 88.284C60.2624 88.5741 60.9623 88.7172 61.6584 88.7172C63.1802 88.7172 64.6884 88.0404 65.6919 86.7488C66.4944 85.7181 66.8617 84.4439 66.738 83.1426C66.9565 83.1716 67.175 83.189 67.3935 83.189C68.9152 83.189 70.4234 82.5122 71.4269 81.2206C72.2603 80.1475 72.6277 78.8113 72.4576 77.4559V77.452C72.5987 77.4636 72.7418 77.4694 72.8829 77.4694C74.4047 77.4694 75.9129 76.7927 76.9184 75.501C77.7885 74.3815 78.1655 72.9313 77.9509 71.5256C77.9277 71.3767 77.8987 71.2317 77.8639 71.0886L82.9608 68.2655L83.3495 69.1086C83.442 69.3102 83.5905 69.481 83.7774 69.6006C83.9642 69.7203 84.1815 69.7837 84.4033 69.7834C84.5657 69.7834 84.732 69.7486 84.8886 69.6771L95.4267 64.8179C95.7062 64.6893 95.9232 64.4549 96.03 64.1663C96.1344 63.8705 96.1228 63.5514 95.9933 63.273ZM14.0302 67.4612L5.59969 63.5727L15.9889 41.0444L24.4194 44.9329L14.0302 67.4612ZM24.9318 75.6654C24.4097 75.1433 24.1216 74.4434 24.1216 73.697C24.1216 72.9506 24.4097 72.2526 24.9318 71.7286L29.1122 67.5482C29.6343 67.0261 30.3342 66.738 31.0786 66.738C31.825 66.738 32.523 67.0261 33.047 67.5482C33.5691 68.0702 33.8572 68.7702 33.8572 69.5166C33.8572 70.2629 33.5691 70.961 33.047 71.485L28.8666 75.6654C27.7819 76.7501 26.0165 76.7501 24.9318 75.6654ZM30.5063 81.2419C29.9842 80.7198 29.6961 80.0198 29.6961 79.2735C29.6961 78.5271 29.9842 77.8291 30.5063 77.3051L37.3609 70.4505C38.4456 69.3657 40.211 69.3657 41.2958 70.4505C41.8178 70.9726 42.1059 71.6725 42.1059 72.4189C42.1059 73.1653 41.8178 73.8633 41.2958 74.3854L35.669 80.0121L35.6651 80.016L34.4412 81.2399C33.9191 81.762 33.2191 82.0501 32.4728 82.0501C32.1078 82.0522 31.7461 81.9819 31.4085 81.8432C31.0709 81.7044 30.7643 81.5 30.5063 81.2419ZM37.3106 85.5905C36.2259 84.5058 36.2259 82.7404 37.3106 81.6557L44.403 74.5632C44.9464 74.0199 45.6579 73.7492 46.3714 73.7492C47.0849 73.7492 47.7965 74.0199 48.3398 74.5632C48.8619 75.0853 49.15 75.7853 49.15 76.5316C49.15 77.278 48.8619 77.976 48.3398 78.5L41.2474 85.5925C40.1607 86.6753 38.3954 86.6753 37.3106 85.5905ZM44.3953 89.6569C43.3106 88.5721 43.3106 86.8068 44.3953 85.722L48.5158 81.6015C49.6005 80.5187 51.3659 80.5187 52.4507 81.6035C53.5354 82.6882 53.5354 84.4536 52.4507 85.5383L48.3321 89.6569C47.2454 90.7436 45.4801 90.7416 44.3953 89.6569ZM56.7084 89.7497C55.7668 90.9601 54.0149 91.1805 52.8026 90.2389L51.8048 89.4635L54.0884 87.1799C54.6762 86.5921 55.0881 85.8941 55.3298 85.1535L56.2192 85.8458C56.8032 86.2982 57.1744 86.9576 57.2672 87.6981C57.3601 88.4387 57.1628 89.1677 56.7084 89.7497ZM75.0853 74.0721C74.1437 75.2825 72.3918 75.503 71.1814 74.5613L70.5317 74.0566L59.8312 65.7364C59.5884 65.5474 59.2804 65.4626 58.9751 65.5007C58.6698 65.5388 58.3921 65.6966 58.2031 65.9394C58.0141 66.1822 57.9294 66.4902 57.9674 66.7955C58.0055 67.1008 58.1633 67.3785 58.4061 67.5675L69.1066 75.8878L69.1086 75.8897C69.6906 76.3441 70.0618 76.9996 70.1546 77.7401C70.2475 78.4807 70.0483 79.2097 69.5939 79.7936C69.1414 80.3776 68.4821 80.7488 67.7415 80.8416C67.001 80.9344 66.272 80.7353 65.688 80.2828L64.7967 79.5887L64.7928 79.5848L54.189 71.3399C53.6824 70.9455 52.9553 71.0383 52.5609 71.543C52.1684 72.0496 52.2592 72.7785 52.7639 73.1711L63.3677 81.4159C63.9517 81.8684 64.3229 82.5277 64.4157 83.2683C64.5086 84.0089 64.3094 84.7378 63.8569 85.3218C62.9153 86.5322 61.1634 86.7526 59.9511 85.811L57.6424 84.0166L57.6404 84.0146L55.411 82.2822C55.184 81.4047 54.7259 80.6041 54.0845 79.9638C53.2733 79.1515 52.2106 78.6383 51.0701 78.5078C51.3272 77.891 51.4645 77.2219 51.4645 76.5316C51.4645 75.1646 50.9347 73.8846 49.9737 72.9236C48.4655 71.4173 46.2438 71.0518 44.3895 71.8272C44.2619 70.7251 43.7766 69.6558 42.9335 68.8108C41.0579 66.9352 38.0744 66.8289 36.0712 68.4898C35.8731 67.5117 35.3908 66.6138 34.6848 65.9085C33.7238 64.9475 32.4418 64.4177 31.0767 64.4177C29.7097 64.4177 28.4296 64.9475 27.4686 65.9085L23.3404 70.0367L17.0118 66.5311L26.3297 46.327L27.3642 46.7601C28.4412 47.2106 29.4873 47.4233 30.6359 47.4233C30.7441 47.4233 30.8524 47.4214 30.9626 47.4175C33.5614 47.3286 35.6033 46.6982 37.5794 46.0891C39.5381 45.4859 41.3886 44.9154 43.6857 44.9116C43.8442 44.9174 44.0086 44.927 44.1729 44.9387C41.1643 46.3695 38.523 48.4752 37.5407 51.5032C36.2955 55.3414 36.2974 57.886 36.3013 61.4071V62.0104C36.3013 62.3236 36.4289 62.6233 36.6532 62.8418C37.8056 63.9613 39.1881 64.555 40.6461 64.555C44.0492 64.555 45.5419 61.9543 46.8606 59.6591C48.16 57.3968 49.2815 55.4419 51.9924 55.4419C52.9437 55.4419 53.9144 55.7513 54.5911 56.2676C54.6047 56.2792 54.6202 56.2888 54.6337 56.2985L74.6445 70.2011C75.1878 70.58 75.5474 71.1717 75.6538 71.8678C75.7756 72.649 75.5668 73.4514 75.0853 74.0721ZM76.7907 69.0254C76.5469 68.7518 76.2717 68.5078 75.9709 68.2984L55.9814 54.4094C54.9005 53.5915 53.4503 53.1236 51.9963 53.1236C47.9415 53.1236 46.2284 56.1071 44.8516 58.5047C43.5233 60.8173 42.6106 62.2346 40.6499 62.2346C39.8069 62.2346 39.1205 61.875 38.6255 61.4863V61.4051C38.6216 57.8512 38.6197 55.7068 39.7508 52.2186C41.4969 46.8394 51.1532 44.6892 55.3162 44.5287C57.6134 44.5326 59.4638 45.103 61.4206 45.7063C63.3967 46.3154 65.4386 46.9457 68.0374 47.0347C69.3135 47.0772 70.4563 46.8703 71.6358 46.3772L72.6702 45.9441L81.9882 66.1482L76.7907 69.0254ZM84.9698 67.0783L74.5806 44.55L83.0111 40.6615L93.4003 63.1898L84.9698 67.0783ZM87.4042 64.3075C89.0768 64.3075 90.438 62.9462 90.438 61.2737C90.438 59.6011 89.0768 58.2398 87.4042 58.2398C85.7317 58.2398 84.3704 59.6011 84.3704 61.2737C84.3704 62.9462 85.7317 64.3075 87.4042 64.3075ZM87.4042 60.5621C87.7968 60.5621 88.1177 60.8831 88.1177 61.2756C88.1177 61.6681 87.7968 61.9891 87.4042 61.9891C87.0117 61.9891 86.6907 61.67 86.6907 61.2756C86.6907 60.8811 87.0117 60.5621 87.4042 60.5621ZM11.5958 58.6246C9.9232 58.6246 8.56195 59.9859 8.56195 61.6584C8.56195 63.331 9.9232 64.6922 11.5958 64.6922C13.2683 64.6922 14.6296 63.331 14.6296 61.6584C14.6296 59.9859 13.2683 58.6246 11.5958 58.6246ZM11.5958 62.3719C11.2032 62.3719 10.8823 62.051 10.8823 61.6584C10.8823 61.2659 11.2013 60.9449 11.5958 60.9449C11.9902 60.9449 12.3093 61.264 12.3093 61.6584C12.3093 62.0529 11.9883 62.3719 11.5958 62.3719Z" fill="#FFD266"/>
</svg>
