<svg width="76" height="74" viewBox="0 0 76 74" fill="none" xmlns="http://www.w3.org/2000/svg">
<g clip-path="url(#clip0_16_5)">
<path d="M15.4865 49.1902C22.9825 57.915 32.0061 64.7845 42.3054 69.6453C46.2266 71.4546 51.4707 73.6013 57.3132 73.9693C57.6754 73.9847 58.0219 74 58.3841 74C62.3054 74 65.455 72.6813 68.0219 69.9673C68.0376 69.9519 68.0691 69.9213 68.0849 69.8906C68.9983 68.8172 70.0376 67.8512 71.1243 66.8239C71.8644 66.1339 72.6203 65.4132 73.3447 64.6772C76.6991 61.2731 76.6991 56.949 73.3132 53.6523L63.8487 44.4368C62.2424 42.8114 60.3211 41.9528 58.3054 41.9528C56.2896 41.9528 54.3526 42.8114 52.6991 44.4215L47.0613 49.9109C46.5416 49.6196 46.0061 49.3589 45.5022 49.1135C44.8723 48.8069 44.2896 48.5155 43.7699 48.1935C38.6361 45.0195 33.9746 40.8794 29.5179 35.5586C27.266 32.7833 25.7542 30.4525 24.6991 28.0758C26.1794 26.7725 27.5652 25.4078 28.9038 24.0738C29.3762 23.5984 29.8644 23.1231 30.3526 22.6477C32.0534 20.9917 32.9668 19.075 32.9668 17.1276C32.9668 15.1803 32.0691 13.2636 30.3526 11.6075L25.6597 7.03813C25.1085 6.50145 24.5888 5.98011 24.0534 5.44343C23.014 4.40075 21.9274 3.32739 20.8565 2.36138C19.2345 0.812681 17.329 0 15.3132 0C13.3132 0 11.392 0.812681 9.70692 2.37671L3.81716 8.11148C1.67543 10.1969 0.462829 12.7269 0.21086 15.6556C-0.0883522 19.3203 0.604561 23.2151 2.39984 27.9225C5.15574 35.206 9.31322 41.9681 15.4865 49.1902ZM4.05338 15.9776C4.24236 13.9383 5.04551 12.2362 6.55732 10.7642L12.4156 5.06009C13.329 4.20141 14.3368 3.75673 15.3132 3.75673C16.2739 3.75673 17.2502 4.20141 18.1479 5.09076C19.203 6.04144 20.1951 7.03813 21.266 8.09615C21.8014 8.63282 22.3526 9.1695 22.9038 9.72151L27.5967 14.2909C28.5731 15.2416 29.077 16.2076 29.077 17.1583C29.077 18.109 28.5731 19.075 27.5967 20.0257C27.1085 20.501 26.6203 20.9917 26.1321 21.4671C24.6676 22.9084 23.2975 24.2731 21.7857 25.5765L21.7069 25.6531C20.3998 26.9258 20.6046 28.1372 20.9195 29.0572C20.9353 29.1032 20.951 29.1339 20.9668 29.1799C22.1794 32.0166 23.8644 34.7153 26.4943 37.9353C31.2187 43.6088 36.1951 48.0095 41.6754 51.3983C42.3526 51.8276 43.077 52.1649 43.7542 52.5023C44.3841 52.8089 44.9668 53.1003 45.4865 53.4223C45.5494 53.453 45.5967 53.4836 45.6597 53.5143C46.1794 53.775 46.6833 53.8976 47.1872 53.8976C48.4471 53.8976 49.266 53.1156 49.5337 52.855L55.4235 47.1202C56.3368 46.2308 57.329 45.7555 58.3054 45.7555C59.5022 45.7555 60.4786 46.4762 61.0928 47.1202L70.5888 56.351C72.4786 58.191 72.4628 60.1844 70.5416 62.1318C69.8802 62.8218 69.1872 63.4811 68.4471 64.1712C67.3447 65.2138 66.1951 66.2872 65.1557 67.4985C63.3447 69.3999 61.1872 70.2893 58.3998 70.2893C58.1321 70.2893 57.8487 70.2739 57.5809 70.2586C52.4156 69.9366 47.6124 67.9739 44.0061 66.3025C34.2109 61.6871 25.6124 55.1397 18.4786 46.8288C12.6046 39.9441 8.65181 33.5346 6.03763 26.6651C4.41559 22.4484 3.80141 19.0597 4.05338 15.9776Z" fill="#EB0701"/>
</g>
<defs>
<clipPath id="clip0_16_5">
<rect width="76" height="74" fill="white"/>
</clipPath>
</defs>
</svg>
