<svg width="75" height="76" viewBox="0 0 75 76" fill="none" xmlns="http://www.w3.org/2000/svg">
<path fill-rule="evenodd" clip-rule="evenodd" d="M59.8448 10.3544C53.2667 3.68084 44.5184 0.00389648 35.1984 0C15.9938 0 0.364029 15.8378 0.356338 35.3036C0.353702 41.5263 1.95781 47.6005 5.00696 52.9548L0.0641022 71.25L18.5344 66.3402C23.6237 69.1534 29.3534 70.6359 35.1842 70.6377H35.1989C54.4014 70.6377 70.0328 54.7987 70.0401 35.3319C70.044 25.8977 66.4233 17.0276 59.8448 10.3544ZM35.1984 64.6749H35.1863C29.9902 64.6727 24.894 63.2577 20.447 60.5845L19.3901 59.9483L8.42953 62.862L11.355 52.0331L10.6661 50.9229C7.76727 46.2506 6.23644 40.8504 6.23908 35.3057C6.24512 19.1262 19.2364 5.96295 35.21 5.96295C42.945 5.96551 50.2162 9.0218 55.6836 14.5686C61.1509 20.1154 64.1602 27.4883 64.1577 35.3296C64.1508 51.5104 51.1604 64.6749 35.1984 64.6749ZM51.083 42.6968C50.2127 42.255 45.9323 40.1215 45.1341 39.8267C44.3367 39.5323 43.7556 39.3856 43.1759 40.2685C42.5952 41.1513 40.9271 43.1386 40.419 43.727C39.9108 44.3159 39.4036 44.3897 38.5328 43.948C37.6622 43.5066 34.8571 42.5746 31.5317 39.5692C28.9438 37.23 27.1968 34.3411 26.6887 33.4584C26.1815 32.5747 26.6843 32.1433 27.0706 31.6579C28.013 30.472 28.9567 29.2287 29.2469 28.6404C29.5373 28.0514 29.3919 27.5362 29.1739 27.0948C28.9567 26.6534 27.2157 22.3111 26.4904 20.5443C25.7832 18.8248 25.066 19.0569 24.5313 19.0301C24.0241 19.0044 23.4434 18.9991 22.8628 18.9991C22.2825 18.9991 21.3392 19.2196 20.5411 20.1033C19.7432 20.9866 17.4946 23.1205 17.4946 27.4627C17.4946 31.805 20.614 35.9997 21.0492 36.5885C21.4842 37.1775 27.1882 46.0879 35.921 49.9088C37.9981 50.8186 39.6195 51.3609 40.8842 51.7674C42.9699 52.4389 44.8672 52.3441 46.3675 52.117C48.0403 51.8635 51.5178 49.9827 52.2439 47.9222C52.9692 45.8615 52.9692 44.0954 52.7511 43.727C52.534 43.3592 51.9534 43.1386 51.083 42.6968Z" fill="#EB0701"/>
</svg>
